<svg xmlns="http://www.w3.org/2000/svg" xmlns:xlink="http://www.w3.org/1999/xlink" width="48" zoomAndPan="magnify" viewBox="0 0 36 43.92" height="48" preserveAspectRatio="xMidYMid meet" version="1.0"><defs><clipPath id="6996cd9f64"><path d="M 0.03125 0 L 35.964844 0 L 35.964844 35.933594 L 0.03125 35.933594 Z M 0.03125 0 " clip-rule="nonzero"/></clipPath><clipPath id="d0c4d8da8d"><path d="M 0.03125 0 L 35.964844 0 L 35.964844 35.933594 L 0.03125 35.933594 Z M 0.03125 0 " clip-rule="nonzero"/></clipPath><clipPath id="72bf87d26a"><path d="M 18 0 C 8.078125 0 0.03125 8.042969 0.03125 17.96875 C 0.03125 27.890625 8.078125 35.933594 18 35.933594 C 27.921875 35.933594 35.96875 27.890625 35.96875 17.96875 C 35.96875 8.042969 27.921875 0 18 0 Z M 18 0 " clip-rule="nonzero"/></clipPath><clipPath id="7afa031774"><path d="M 0.03125 0 L 35.964844 0 L 35.964844 35.933594 L 0.03125 35.933594 Z M 0.03125 0 " clip-rule="nonzero"/></clipPath><clipPath id="3d73db94f6"><path d="M 18 0 C 8.078125 0 0.03125 8.042969 0.03125 17.96875 C 0.03125 27.890625 8.078125 35.933594 18 35.933594 C 27.921875 35.933594 35.96875 27.890625 35.96875 17.96875 C 35.96875 8.042969 27.921875 0 18 0 Z M 18 0 " clip-rule="nonzero"/></clipPath><clipPath id="44f9d94f69"><rect x="0" width="36" y="0" height="36"/></clipPath><clipPath id="3f82fa50e4"><path d="M 10.144531 23 L 25.867188 23 L 25.867188 29 L 10.144531 29 Z M 10.144531 23 " clip-rule="nonzero"/></clipPath></defs><g clip-path="url(#6996cd9f64)"><path fill="#ffffff" d="M 0.03125 0 L 35.96875 0 L 35.96875 35.933594 L 0.03125 35.933594 Z M 0.03125 0 " fill-opacity="1" fill-rule="nonzero"/><path fill="#ffffff" d="M 0.03125 0 L 35.96875 0 L 35.96875 35.933594 L 0.03125 35.933594 Z M 0.03125 0 " fill-opacity="1" fill-rule="nonzero"/></g><g clip-path="url(#d0c4d8da8d)"><g clip-path="url(#72bf87d26a)"><g transform="matrix(1, 0, 0, 1, -0.000000000000000007, 0.000000000000007284)"><g clip-path="url(#44f9d94f69)"><g clip-path="url(#7afa031774)"><g clip-path="url(#3d73db94f6)"><path fill="#10a1de" d="M 0.03125 0 L 35.96875 0 L 35.96875 35.933594 L 0.03125 35.933594 Z M 0.03125 0 " fill-opacity="1" fill-rule="nonzero"/></g></g></g></g></g></g><path fill="#000000" d="M 20.429688 12.578125 L 20.429688 10.882812 L 19.292969 10.882812 L 19.292969 11.570312 Z M 14.328125 13.914062 C 14.234375 13.996094 14.089844 13.988281 14.007812 13.890625 C 13.925781 13.796875 13.933594 13.652344 14.03125 13.570312 L 17.675781 10.402344 C 17.765625 10.324219 17.898438 10.332031 17.984375 10.410156 L 21.554688 13.574219 C 21.648438 13.65625 21.65625 13.800781 21.574219 13.894531 C 21.492188 13.988281 21.347656 13.996094 21.253906 13.914062 L 17.824219 10.878906 Z M 17.144531 17.242188 L 15.3125 17.242188 L 15.3125 13.726562 L 17.824219 11.519531 L 20.339844 13.726562 L 20.339844 17.242188 L 18.734375 17.242188 L 18.734375 15.105469 L 17.144531 15.105469 Z M 17.144531 17.242188 " fill-opacity="1" fill-rule="evenodd"/><path fill="#000000" d="M 23.207031 14.007812 C 23.207031 16.953125 20.820312 19.339844 17.878906 19.339844 C 14.933594 19.339844 12.546875 16.953125 12.546875 14.007812 C 12.546875 11.066406 14.933594 8.679688 17.878906 8.679688 C 20.820312 8.679688 23.207031 11.066406 23.207031 14.007812 Z M 22.445312 9.277344 C 19.90625 6.738281 15.824219 6.746094 13.300781 9.269531 C 12.128906 10.441406 11.40625 12.058594 11.40625 13.847656 C 11.40625 18.917969 16.980469 24.476562 17.988281 25.441406 C 18.976562 24.46875 24.351562 18.917969 24.351562 13.847656 C 24.351562 12.078125 23.621094 10.453125 22.445312 9.277344 Z M 22.445312 9.277344 " fill-opacity="1" fill-rule="evenodd"/><g clip-path="url(#3f82fa50e4)"><path fill="#000000" d="M 24.796875 24.230469 C 24.097656 23.75 23.09375 23.347656 21.894531 23.070312 L 21.515625 23.558594 C 22.617188 23.886719 24.132812 24.597656 24.132812 25.757812 C 24.132812 26.535156 23.417969 27.21875 22.257812 27.695312 C 19.894531 28.671875 16.09375 28.671875 13.726562 27.695312 C 12.570312 27.21875 11.851562 26.535156 11.851562 25.757812 C 11.851562 24.617188 13.316406 23.914062 14.398438 23.582031 L 14.003906 23.089844 C 12.828125 23.371094 11.847656 23.769531 11.164062 24.25 C 10.515625 24.703125 10.144531 25.21875 10.144531 25.757812 C 10.144531 26.578125 10.996094 27.339844 12.367188 27.90625 C 15.464844 29.1875 20.519531 29.1875 23.617188 27.90625 C 24.992188 27.339844 25.839844 26.578125 25.839844 25.757812 C 25.839844 25.210938 25.460938 24.691406 24.796875 24.230469 Z M 24.796875 24.230469 " fill-opacity="1" fill-rule="evenodd"/></g></svg>